<svg id="Group_3367" data-name="Group 3367" xmlns="http://www.w3.org/2000/svg" xmlns:xlink="http://www.w3.org/1999/xlink" width="18" height="18" viewBox="0 0 18 18">
  <defs>
    <clipPath id="clip-path">
      <rect id="Rectangle_1201" data-name="Rectangle 1201" width="18" height="18" fill="#fff"/>
    </clipPath>
  </defs>
  <g id="Group_3364" data-name="Group 3364" clip-path="url(#clip-path)">
    <g id="Group_3363" data-name="Group 3363">
      <g id="Group_3362" data-name="Group 3362" clip-path="url(#clip-path)">
        <g id="Group_3361" data-name="Group 3361" opacity="0">
          <g id="Group_3360" data-name="Group 3360">
            <g id="Group_3359" data-name="Group 3359" clip-path="url(#clip-path)">
              <rect id="Rectangle_1198" data-name="Rectangle 1198" width="18" height="18" fill="#fff"/>
            </g>
          </g>
        </g>
        <path id="Path_15360" data-name="Path 15360" d="M9.064.255a8.809,8.809,0,1,0,8.809,8.809A8.819,8.819,0,0,0,9.064.255m0,16.118a7.309,7.309,0,1,1,7.309-7.309,7.317,7.317,0,0,1-7.309,7.309" transform="translate(-0.064 -0.064)" fill="#fff"/>
        <path id="Path_15361" data-name="Path 15361" d="M12.7,13.957A3.742,3.742,0,0,0,15.394,7.6c.2.061.4.124.594.2a6.738,6.738,0,0,0-1.2-1.874,10.671,10.671,0,0,0-1.331-.18V4.781a6.719,6.719,0,0,0-1.468-.718.38.38,0,0,0-.032.149V5.754a8.715,8.715,0,0,0-1.594.289l-.616-1.5a.374.374,0,0,0-.489-.2l-.694.284a.375.375,0,0,0-.205.489l.6,1.457a10.718,10.718,0,0,0-1.3.711L6.478,5.866a.376.376,0,0,0-.529-.047L5.374,6.3a.375.375,0,0,0-.047.528l1.112,1.33A14.486,14.486,0,0,0,5.3,9.2L3.646,8.13a.361.361,0,0,0-.193-.053,6.684,6.684,0,0,0-.368,1.477l1.207.781A15.79,15.79,0,0,0,3.18,11.876a6.725,6.725,0,0,0,.443,1.331H4.916a13.737,13.737,0,0,0,7.789,3c.2,0,.39-.014.586-.022a6.776,6.776,0,0,0,1.873-1.7,13.207,13.207,0,0,1-2.459.226,12.064,12.064,0,0,1-6.97-2.78l-.22-.22H5.128a12.437,12.437,0,0,1,4.711-3.89,3.715,3.715,0,0,0-.884,2.389,3.754,3.754,0,0,0,3.75,3.75m0-1.5a2.25,2.25,0,1,1,2.25-2.25,2.253,2.253,0,0,1-2.25,2.25" transform="translate(-0.771 -1.016)" fill="#fff"/>
      </g>
    </g>
  </g>
</svg>
