<svg id="Group_2917" data-name="Group 2917" xmlns="http://www.w3.org/2000/svg" xmlns:xlink="http://www.w3.org/1999/xlink" width="26" height="26" viewBox="0 0 26 26">
  <defs>
    <clipPath id="clip-path">
      <rect id="Rectangle_62" data-name="Rectangle 62" width="26" height="26" fill="#eee"/>
    </clipPath>
  </defs>
  <g id="Group_129" data-name="Group 129" clip-path="url(#clip-path)">
    <path id="Path_58" data-name="Path 58" d="M13,0A13,13,0,1,0,26,13,13,13,0,0,0,13,0m0,17.75A4.75,4.75,0,1,1,17.75,13,4.756,4.756,0,0,1,13,17.75m4.19-10.78a7.3,7.3,0,0,0-2.89-1.2V2.69a10.34,10.34,0,0,1,5.07,2.1Zm-5.49-1.2a7.307,7.307,0,0,0-2.892,1.2L6.63,4.792A10.327,10.327,0,0,1,11.7,2.69ZM6.971,8.809a7.32,7.32,0,0,0-1.2,2.891H2.69a10.347,10.347,0,0,1,2.1-5.07ZM5.772,14.3a7.32,7.32,0,0,0,1.2,2.891L4.792,19.37a10.347,10.347,0,0,1-2.1-5.07Zm3.037,4.729a7.307,7.307,0,0,0,2.892,1.2V23.31a10.327,10.327,0,0,1-5.071-2.1Zm5.492,1.2a7.3,7.3,0,0,0,2.89-1.2l2.18,2.179a10.339,10.339,0,0,1-5.07,2.1Zm4.728-3.037a7.282,7.282,0,0,0,1.2-2.891H23.31a10.333,10.333,0,0,1-2.1,5.07Zm1.2-5.491a7.282,7.282,0,0,0-1.2-2.891L21.21,6.63a10.333,10.333,0,0,1,2.1,5.07Z" fill="#eee"/>
    <path id="Path_59" data-name="Path 59" d="M12.083,7.55,10.736,8.9,9.388,7.55,7.549,9.388,8.9,10.735,7.549,12.083l1.838,1.838,1.348-1.347,1.347,1.347,1.838-1.838-1.347-1.348,1.347-1.347Z" transform="translate(2.265 2.265)" fill="#eee"/>
  </g>
</svg>
